<?xml version="1.0" encoding="utf-8"?>
<!-- Generator: Adobe Illustrator 23.0.6, SVG Export Plug-In . SVG Version: 6.00 Build 0)  -->
<svg version="1.1" id="Layer_1" xmlns="http://www.w3.org/2000/svg" xmlns:xlink="http://www.w3.org/1999/xlink" x="0px" y="0px"
	 viewBox="0 0 512 512" style="enable-background:new 0 0 512 512;" xml:space="preserve">
<style type="text/css">
	.st0{fill:#C1272D;}
</style>
<g>
	<g>
		<path class="st0" d="M482.9,266.7c17.9-8.5,29.1-19,29.1-32c0-42.1-114.3-56.3-172.6-60.8c-9.1-18.9-51.9-23.3-72.8-24.2V74.7
			c0-5.9-4.8-10.7-10.7-10.7s-10.7,4.8-10.7,10.7v74.9c-20.9,0.9-63.7,5.3-72.8,24.2C114.3,178.4,0,192.6,0,234.7
			c0,13,11.2,23.5,29.1,32C9.7,275.8,0,286.3,0,298.7c0,48.7,154.7,62.9,245.3,63.9v74.8c0,5.9,4.8,10.7,10.7,10.7
			c5.9,0,10.7-4.8,10.7-10.7v-74.8c90.6-1,245.3-15.2,245.3-63.9C512,286.3,502.3,275.8,482.9,266.7z M256,170.7
			c33.5,0,55,6.2,62.2,10.7C311,185.8,289.5,192,256,192s-55-6.2-62.2-10.7C201,176.9,222.5,170.7,256,170.7z M21.3,234.7
			c0-9.7,47.2-31.6,155.6-39.7c18.4,17.8,71.8,18.4,79,18.4s60.6-0.7,79-18.4c108.5,8.1,155.6,30.1,155.6,39.7
			c0,14.5-82.8,42.7-234.7,42.7S21.3,249.1,21.3,234.7z M256,341.3c-151.8,0-234.7-28.2-234.7-42.7c0-2.4,7.4-11.4,38.9-20.9
			c56.8,15.7,141.3,20.9,195.8,20.9s139-5.1,195.8-20.9c31.4,9.5,38.9,18.4,38.9,20.9C490.7,313.1,407.8,341.3,256,341.3z"/>
	</g>
</g>
</svg>
