<?xml version="1.0" encoding="utf-8"?>
<!-- Generator: Adobe Illustrator 24.1.0, SVG Export Plug-In . SVG Version: 6.00 Build 0)  -->
<svg version="1.1" id="Capa_1" xmlns="http://www.w3.org/2000/svg" xmlns:xlink="http://www.w3.org/1999/xlink" x="0px" y="0px"
	 viewBox="0 0 45.9 45.9" style="enable-background:new 0 0 45.9 45.9;" xml:space="preserve">
<style type="text/css">
	.st0{fill:#C5C6C7;}
</style>
<g>
	<g>
		<path class="st0" d="M19.3,10.5c0.4,0.3,0.7,0.7,0.9,1.2c0.9,0,1.8-0.1,2.7-0.1c1,0,1.9,0,2.7,0.1c0.2-0.4,0.5-0.8,0.9-1.2
			l2.8-2.6c-2-0.2-4.1-0.3-6.2-0.3l0,0h-0.4l0,0c-2.1,0-4.2,0.1-6.2,0.3L19.3,10.5z"/>
		<path class="st0" d="M2.6,3.5l12.7,11.4c0.4,0.3,0.9,0.5,1.3,0.5c0.6,0,1.1-0.2,1.5-0.7c0.7-0.8,0.7-2.1-0.1-2.8L5.3,0.5
			C4.4-0.2,3.2-0.2,2.4,0.7C1.7,1.5,1.8,2.8,2.6,3.5z"/>
		<path class="st0" d="M39.1,9.9L35.7,13c3.4,0.9,5.2,2,5.4,2.6c-0.3,1.1-6.3,4.1-18.1,4.1s-17.8-3-18.1-4.1C5,15,6.8,13.9,10.3,13
			L6.7,9.9c-3.6,1.3-5.9,3.2-5.9,5.7V38c0.4,5.3,11.5,7.7,21.9,7.8h0.4l0,0C33.6,45.7,44.6,43.3,45,38V15.6
			C45,13.2,42.7,11.3,39.1,9.9z M4.7,27.8v-5.5c1,0.4,2.3,0.8,3.7,1.1L4.7,27.8z M22.9,39.1L12.8,24.4c4.7,1.2,15.4,1.1,20.4,0
			L22.9,39.1z M41.2,27.8l-3.7-4.4c1.4-0.4,2.7-0.7,3.7-1.1V27.8z"/>
		<path class="st0" d="M27.8,14.8c0.4,0.4,0.9,0.7,1.5,0.7c0.5,0,1-0.2,1.3-0.5L43.3,3.5c0.8-0.7,0.9-2,0.1-2.8
			c-0.7-0.8-2-0.9-2.8-0.1L27.9,12C27.1,12.7,27,14,27.8,14.8z"/>
	</g>
</g>
</svg>
