<?xml version="1.0" encoding="utf-8"?>
<!-- Generator: Adobe Illustrator 24.1.0, SVG Export Plug-In . SVG Version: 6.00 Build 0)  -->
<svg version="1.1" id="Layer_1" xmlns="http://www.w3.org/2000/svg" xmlns:xlink="http://www.w3.org/1999/xlink" x="0px" y="0px"
	 viewBox="0 0 464 464" style="enable-background:new 0 0 464 464;" xml:space="preserve">
<style type="text/css">
	.st0{fill:#C5C6C7;}
</style>
<path class="st0" d="M138.6,240.7l-136,136C0.9,378.4,0,380.6,0,383c0,4.9,4,9,9,9c2.4,0,4.7-1,6.3-2.6l136-136
	C146.4,249.8,142.2,245.6,138.6,240.7z"/>
<path class="st0" d="M303.8,3.2c24.6,12.6,45.9,30.7,62.1,52.8h27.5C370.6,29.5,339.3,10.4,303.8,3.2z"/>
<path class="st0" d="M239.9,205.2c18.8-6.6,32.1-24.6,32.1-45.2c0-26.5-21.5-48-48-48c-23.9,0-43.8,17.6-47.4,40.5
	c2.4-0.3,4.9-0.5,7.4-0.5C213.9,152,238.4,175.6,239.9,205.2z"/>
<path class="st0" d="M224,208c0,22.1-17.9,40-40,40s-40-17.9-40-40s17.9-40,40-40S224,185.9,224,208z"/>
<path class="st0" d="M393.3,264h-27.5c-16.2,22.1-37.5,40.2-62.1,52.8C339.3,309.6,370.6,290.5,393.3,264z"/>
<path class="st0" d="M431.6,168h-31.8c-1.3,29-9.7,56.3-23.5,80h29.2C420.8,224.8,430.1,197.4,431.6,168z"/>
<path class="st0" d="M318.6,384h31.7L340,332.3c-10,2.1-20.4,3.3-31,3.6L318.6,384z"/>
<path class="st0" d="M405.5,72h-29.2c13.8,23.7,22.2,51,23.5,80h31.8C430.1,122.6,420.8,95.2,405.5,72z"/>
<path class="st0" d="M353.4,400H222.6l-3.2,16h137.3L353.4,400z"/>
<path class="st0" d="M161.8,464h31.7l25.6-128.2c-10.5-0.3-20.9-1.5-31-3.6L161.8,464z"/>
<path class="st0" d="M372.4,15.6C418.1,47.4,448,100.3,448,160s-29.9,112.6-75.6,144.4c54-25.7,91.6-80.7,91.6-144.4
	S426.5,41.3,372.4,15.6z"/>
<path class="st0" d="M235.4,336l-9.6,48h76.5l-9.6-48H235.4z"/>
<path class="st0" d="M328.2,432l6.4,32h31.7l-6.4-32H328.2z"/>
<path class="st0" d="M384,160C384,71.8,312.2,0,224,0S64,71.8,64,160c0,35.9,12.2,70.5,34.1,98.5l11.4-11.4
	c-19-25-29.5-55.6-29.5-87.2c0-79.4,64.6-144,144-144s144,64.6,144,144s-64.6,144-144,144c-27.8,0-54.6-8-77.8-22.9l-11.6,11.6
	c26.4,17.9,57.1,27.4,89.3,27.4C312.2,320,384,248.2,384,160z"/>
<path class="st0" d="M352,160c0-70.6-57.4-128-128-128S96,89.4,96,160c0,27.3,8.8,53.9,24.9,75.8l10-10c-1.9-5.6-2.9-11.6-2.9-17.8
	c0-22.3,13.2-41.6,32.1-50.6C161.5,123.3,189.6,96,224,96c35.3,0,64,28.7,64,64c0,30.1-21.1,56-50,62.4c-6.4,23.9-28.2,41.6-54,41.6
	c-6.2,0-12.2-1.1-17.8-2.9l-8.5,8.5c19.9,12.1,42.6,18.5,66.2,18.5C294.6,288,352,230.6,352,160z M333,185.8l-15.6-3.7
	c1.1-4.8,1.9-9.8,2.3-14.8l16,1.2C335.2,174.4,334.3,180.2,333,185.8z M224,64V48c58.2,0,107.3,45.4,111.7,103.4l-16,1.2
	C315.9,102.9,273.9,64,224,64z"/>
</svg>
