<?xml version="1.0" encoding="utf-8"?>
<!-- Generator: Adobe Illustrator 24.1.0, SVG Export Plug-In . SVG Version: 6.00 Build 0)  -->
<svg version="1.1" id="Capa_1" xmlns="http://www.w3.org/2000/svg" xmlns:xlink="http://www.w3.org/1999/xlink" x="0px" y="0px"
	 viewBox="0 0 512 512" style="enable-background:new 0 0 512 512;" xml:space="preserve">
<style type="text/css">
	.st0{fill:#C5C6C7;}
</style>
<g>
	<g>
		<circle class="st0" cx="295.8" cy="216.2" r="9.9"/>
	</g>
</g>
<g>
	<g>
		<circle class="st0" cx="266" cy="246" r="9.9"/>
	</g>
</g>
<g>
	<g>
		<circle class="st0" cx="236.2" cy="275.8" r="9.9"/>
	</g>
</g>
<g>
	<g>
		<circle class="st0" cx="206.4" cy="305.6" r="9.9"/>
	</g>
</g>
<g>
	<g>
		<circle class="st0" cx="176.5" cy="335.5" r="9.9"/>
	</g>
</g>
<g>
	<g>
		<circle class="st0" cx="146.7" cy="365.3" r="9.9"/>
	</g>
</g>
<g>
	<g>
		<circle class="st0" cx="82.1" cy="429.9" r="9.9"/>
	</g>
</g>
<g>
	<g>
		<path class="st0" d="M462.6,58.3l-8.9-8.9c-2.6-2.6-6.8-2.6-9.4,0l-12.7,12.7c-4.9,4.9-5.4,12.9-0.7,18.1c5,5.5,13.5,5.6,18.7,0.5
			l13-13C465.2,65.1,465.2,60.9,462.6,58.3z"/>
	</g>
</g>
<g>
	<g>
		<path class="st0" d="M506,19.7L492.2,5.9c-7-7-18.3-7.8-26.4-2.1c-8.1,5.8-21,12.1-37.5,18.4c-12.1,4.6-21.5,14.1-25.9,26.2
			c-3.9,10.7-11.7,22.1-16.6,28.5c-3.2-1.5-6.6-2.3-10.2-2.3c-6.5,0-12.5,2.5-17.1,7.1c-6.9,6.9-8.7,17-5.5,25.6
			c-8.8,4.9-22.8,14.9-33.3,33.6c-2.8-1.1-5.8-1.7-8.8-1.7c-6.5,0-12.5,2.5-17.1,7.1s-7.1,10.6-7.1,17.1c0,3.9,0.9,7.6,2.6,11
			L241.1,223c-2.9,2.9-2.9,7.7,0,10.6c2.9,2.9,7.7,2.9,10.6,0l47.6-47.6l26.7,26.7L143.2,395.5l-26.7-26.7l114.1-114.1
			c2.9-2.9,2.9-7.7,0-10.6c-2.9-2.9-7.7-2.9-10.6,0l-115,115c-3.4-1.7-7.1-2.6-11-2.6c-6.5,0-12.5,2.5-17.1,7.1
			c-7.3,7.3-9.1,18.7-4.5,27.9c-6.7,6-20.1,16.9-34.9,21.9c-3.9-2.6-8.6-4.1-13.4-4.1c-6.5,0-12.5,2.5-17.1,7.1
			c-9.4,9.4-9.4,24.8,0,34.2L61.4,505c4.7,4.7,10.9,7,17.1,7s12.4-2.3,17.1-7c8-8,9.4-21.1,3-30.5c5-14.7,15.9-28.2,21.9-34.9
			c3.3,1.7,7,2.5,10.8,2.5c6.5,0,12.5-2.5,17.1-7.1c7.6-7.6,9.1-19,4.5-28.1l184.5-184.5c3.4,1.7,7.1,2.6,11,2.6
			c6.5,0,12.5-2.5,17.1-7.1c7-7,8.8-17.2,5.4-25.9c18.7-10.5,28.8-24.4,33.6-33.3c2.7,1,5.6,1.6,8.6,1.6c6.5,0,12.5-2.5,17.1-7.1
			s7.1-10.6,7.1-17.1c0-3.6-0.8-7.1-2.3-10.2c6.5-4.8,17.8-12.7,28.5-16.5c12-4.4,21.5-13.8,26.2-25.9c6.3-16.4,12.6-29.4,18.4-37.5
			C514,37.9,513.1,26.8,506,19.7z M85.1,494.3c-3.5,3.5-9.5,3.5-13,0l-54.4-54.4c-3.6-3.6-3.6-9.4,0-13c3.5-3.5,9.5-3.5,13,0
			l54.4,54.4C88.7,484.9,88.6,490.8,85.1,494.3z M87.4,462.4l-37.7-37.7c14-6.3,25.9-15.9,32.6-21.8l27,27
			C103.2,436.4,93.6,448.4,87.4,462.4z M137.9,424.4c-3.5,3.5-9.5,3.5-13,0c0,0-37.2-37.2-37.3-37.3c-3.5-3.5-3.5-9.5,0-13
			s9.5-3.5,13,0l37.3,37.3C141.5,415,141.5,420.8,137.9,424.4z M354.9,207.4c-3.5,3.5-9.5,3.5-13,0l-37.3-37.3
			c-3.5-3.5-3.5-9.5,0-13s9.5-3.5,13,0l37.3,37.3C358.5,198,358.5,203.8,354.9,207.4z M386.6,159.1c-6.5,8.6-14.8,15.6-24.8,20.9
			L332,150.2c5.3-10,12.3-18.3,20.9-24.8c3.7-2.8,7-4.7,9.4-5.9l30.1,30.1C391.2,152.1,389.3,155.4,386.6,159.1z M419.7,142.7
			c-3.5,3.5-9.5,3.5-13,0l-37.3-37.3c-3.6-3.6-3.6-9.4,0-13c3.5-3.5,9.5-3.5,13,0l12.4,12.4c0,0,24.8,24.8,24.9,24.9
			C423.2,133.2,423.2,139.1,419.7,142.7z M495.9,37.4c-6.6,9.2-13.4,23-20.2,40.8c-3.1,8-9.3,14.2-17.3,17.1
			c-12.8,4.7-25.9,13.7-33,19.1l-27.9-27.9c5.4-7.1,14.4-20.1,19.1-33c2.9-7.9,9.1-14.2,17.1-17.3c17.8-6.8,31.5-13.6,40.8-20.2
			c2.2-1.5,5.2-1.4,7.1,0.5l13.8,13.8C497.3,32.2,497.5,35.2,495.9,37.4z"/>
	</g>
</g>
</svg>
