<?xml version="1.0" encoding="utf-8"?>
<!-- Generator: Adobe Illustrator 24.1.0, SVG Export Plug-In . SVG Version: 6.00 Build 0)  -->
<svg version="1.1" id="Capa_1" xmlns="http://www.w3.org/2000/svg" xmlns:xlink="http://www.w3.org/1999/xlink" x="0px" y="0px"
	 viewBox="0 0 512 512" style="enable-background:new 0 0 512 512;" xml:space="preserve">
<style type="text/css">
	.st0{fill:#C5C6C7;}
</style>
<path class="st0" d="M247.4,0v18.1c-6.5,1.3-12.5,4.1-17.7,8.1c-38.5,1.3-73.9,5.5-99.6,11.8C99,45.6,83.9,55.7,83.9,68.9
	c0,14.3,17.9,25,54.7,32.8c29.4,6.2,67.8,9.8,108.8,10.2v34.5h-8.6c-4.8,0-8.6,3.9-8.6,8.6v34.4c0,4.8,3.9,8.6,8.6,8.6h8.6v169.9
	L171,503.6l15,8.4l37.8-67.2l23.5,23.5v30.9h17.2v-30.9l23.5-23.5l38,67.2l15-8.4l-76.4-135.7v-170h25.8c4.8,0,8.6-3.9,8.6-8.6v-8.6
	h17.2v-17.2H299v-8.6c0-4.8-3.9-8.6-8.6-8.6h-25.8v-34.5c41-0.4,79.4-4,108.8-10.2c36.8-7.8,54.7-18.5,54.7-32.8
	c0-13.1-15.1-23.2-46.2-30.8c-25.8-6.3-61.1-10.5-99.6-11.8c-5.2-4-11.3-6.8-17.7-8.1V0H247.4z M232.6,429.2l14.8-26.3v41
	L232.6,429.2z M279.4,429.2L264.6,444v-41L279.4,429.2z M281.8,180.7h-34.4v-17.2h34.4V180.7z M410.8,68.9
	c-1.1,1.6-8.1,9.5-44.9,16.7C336,91.4,297,94.7,256,94.7s-80-3.2-109.9-9.1c-36.8-7.2-43.8-15.2-44.9-16.7c1-1.4,6.9-8.2,36.5-15
	c20.6-4.7,47.3-8.1,76.5-9.7L206,55.1c-1.1,1.5-1.7,3.3-1.7,5.2c0,10.6,14.2,13.5,19.5,14.5c10.6,1.9,21.4,2.8,32.1,2.7
	c10.8,0.1,21.5-0.8,32.1-2.7c5.3-1.1,19.5-3.9,19.5-14.5c0-1.9-0.6-3.7-1.7-5.2l-8.2-10.9c29.2,1.6,55.9,5,76.5,9.7
	C403.8,60.6,409.8,67.4,410.8,68.9z M276.7,44.8l9.6,12.8c-6.2,1.4-16.6,2.7-30.3,2.7c-13.7,0-24.1-1.3-30.3-2.7l9.6-12.8
	c8.6-11.4,24.7-13.7,36.1-5.2C273.4,41.1,275.2,42.8,276.7,44.8z"/>
</svg>
