<?xml version="1.0" encoding="utf-8"?>
<!-- Generator: Adobe Illustrator 23.0.6, SVG Export Plug-In . SVG Version: 6.00 Build 0)  -->
<svg version="1.1" id="Capa_1" xmlns="http://www.w3.org/2000/svg" xmlns:xlink="http://www.w3.org/1999/xlink" x="0px" y="0px"
	 viewBox="0 0 512 512" style="enable-background:new 0 0 512 512;" xml:space="preserve">
<style type="text/css">
	.st0{fill:#C1272D;}
</style>
<g>
	<g>
		<path class="st0" d="M504.5,364.5c-4.1,0-7.5,3.4-7.5,7.5v9.5h-15V261c0-4.1-3.4-7.5-7.5-7.5h-30.7h-13h-13h-17.7h-13h-13h-30.7
			h-30.2h-13.5h-12.5H269h-13h-13h-18h-12.7H199h-30.4h-30.7h-13h-13H94.2h-13h-13H37.5c-4.1,0-7.5,3.4-7.5,7.5v120.5H15V288
			c0-4.1-3.4-7.5-7.5-7.5S0,283.9,0,288v101c0,4.1,3.4,7.5,7.5,7.5h30h43.7h43.7h43.7h43.7H256h43.7h43.7h43.7h43.7h43.7h30
			c4.1,0,7.5-3.4,7.5-7.5v-17C512,367.9,508.6,364.5,504.5,364.5z M73.7,381.5H45v-113h15.7V331c0,4.1,3.4,7.5,7.5,7.5h5.5V381.5z
			 M86.7,323.5h-11v-55h5.5h5.5V323.5z M117.4,381.5H88.7v-43h5.5c4.1,0,7.5-3.4,7.5-7.5v-62.5h2.7V331c0,4.1,3.4,7.5,7.5,7.5h5.5
			C117.4,338.5,117.4,381.5,117.4,381.5z M130.4,323.5h-11v-55h5.5h5.5V323.5z M161.1,381.5h-28.7v-43h5.5c4.1,0,7.5-3.4,7.5-7.5
			v-62.5h15.7V381.5z M204.8,381.5h-28.7v-113h0h15.4V331c0,4.1,3.4,7.5,7.5,7.5h5.8L204.8,381.5L204.8,381.5z M217.5,323.5h-11v-55
			h5.8h5.2V323.5z M248.5,381.5h-28.7v-43h5.2c4.1,0,7.5-3.4,7.5-7.5v-62.5h3V331c0,4.1,3.4,7.5,7.5,7.5h5.5V381.5z M261.5,323.5
			h-11v-55h5.5h5.5V323.5z M292.2,381.5h-28.7v-43h5.5c4.1,0,7.5-3.4,7.5-7.5v-62.5h3.2V331c0,4.1,3.4,7.5,7.5,7.5h5V381.5z
			 M305.7,323.5h-11v-55h5h6V323.5z M335.9,381.5h-28.7v-43h6c4.1,0,7.5-3.4,7.5-7.5v-62.5h15.2V381.5z M379.6,381.5h-28.7v-113
			h15.7V331c0,4.1,3.4,7.5,7.5,7.5h5.5V381.5z M392.6,323.5h-11v-55h5.5h5.5V323.5z M423.3,381.5h-28.7v-43h5.5
			c4.1,0,7.5-3.4,7.5-7.5v-62.5h2.7V331c0,4.1,3.4,7.5,7.5,7.5h5.5V381.5z M436.3,323.5h-11v-55h5.5h5.5V323.5z M467,381.5h-28.7
			v-43h5.5c4.1,0,7.5-3.4,7.5-7.5v-62.5H467V381.5z"/>
	</g>
</g>
<g>
	<g>
		<path class="st0" d="M504.5,115.5H480c-4.1,0-7.5,3.4-7.5,7.5s3.4,7.5,7.5,7.5h17v84.4H15v-84.4h433c4.1,0,7.5-3.4,7.5-7.5
			s-3.4-7.5-7.5-7.5H7.5c-4.1,0-7.5,3.4-7.5,7.5v99.4v0.4V256c0,4.1,3.4,7.5,7.5,7.5s7.5-3.4,7.5-7.5v-25.7h482v109.4
			c0,4.1,3.4,7.5,7.5,7.5s7.5-3.4,7.5-7.5V222.8v-0.4V123C512,118.9,508.6,115.5,504.5,115.5z"/>
	</g>
</g>
<g>
	<g>
		<path class="st0" d="M351,144.9H161c-4.1,0-7.5,3.4-7.5,7.5v40c0,4.1,3.4,7.5,7.5,7.5h190c4.1,0,7.5-3.4,7.5-7.5v-40
			C358.5,148.2,355.1,144.9,351,144.9z M343.5,184.9h-175v-25h175V184.9z"/>
	</g>
</g>
<g>
	<g>
		<path class="st0" d="M132,144.9h-30c-4.1,0-7.5,3.4-7.5,7.5v40c0,4.1,3.4,7.5,7.5,7.5h30c4.1,0,7.5-3.4,7.5-7.5v-40
			C139.5,148.2,136.1,144.9,132,144.9z M124.5,184.9h-15v-25h15V184.9z"/>
	</g>
</g>
<g>
	<g>
		<path class="st0" d="M410,144.9h-30c-4.1,0-7.5,3.4-7.5,7.5v40c0,4.1,3.4,7.5,7.5,7.5h30c4.1,0,7.5-3.4,7.5-7.5v-40
			C417.5,148.2,414.1,144.9,410,144.9z M402.5,184.9h-15v-25h15V184.9z"/>
	</g>
</g>
<g>
	<g>
		<path class="st0" d="M75.6,151.5h-18c-4.1,0-7.5,3.4-7.5,7.5s3.4,7.5,7.5,7.5h18c4.1,0,7.5-3.4,7.5-7.5S79.8,151.5,75.6,151.5z"/>
	</g>
</g>
<g>
	<g>
		<path class="st0" d="M75.6,177.5h-18c-4.1,0-7.5,3.4-7.5,7.5s3.4,7.5,7.5,7.5h18c4.1,0,7.5-3.4,7.5-7.5S79.8,177.5,75.6,177.5z"/>
	</g>
</g>
<g>
	<g>
		<path class="st0" d="M454.4,151.5h-18c-4.1,0-7.5,3.4-7.5,7.5s3.4,7.5,7.5,7.5h18c4.1,0,7.5-3.4,7.5-7.5S458.5,151.5,454.4,151.5z
			"/>
	</g>
</g>
<g>
	<g>
		<path class="st0" d="M454.4,177.5h-18c-4.1,0-7.5,3.4-7.5,7.5s3.4,7.5,7.5,7.5h18c4.1,0,7.5-3.4,7.5-7.5S458.5,177.5,454.4,177.5z
			"/>
	</g>
</g>
</svg>
